<mxfile host="app.diagrams.net" agent="Mozilla/5.0 (Windows NT 10.0; Win64; x64) AppleWebKit/537.36 (KHTML, like Gecko) Chrome/135.0.0.0 Safari/537.36" version="26.2.14">
  <diagram name="Page-1" id="DXUaXx8Im4-oodSSwy1s">
    <mxGraphModel dx="1158" dy="624" grid="1" gridSize="10" guides="1" tooltips="1" connect="1" arrows="1" fold="1" page="1" pageScale="1" pageWidth="827" pageHeight="1169" background="light-dark(#FFFFFF,#000000)" math="0" shadow="0">
      <root>
        <mxCell id="0" />
        <mxCell id="1" parent="0" />
        <mxCell id="ZHCTBQIuarvFd4h09J1_-1" value="start" style="ellipse;whiteSpace=wrap;html=1;" vertex="1" parent="1">
          <mxGeometry x="340" y="20" width="120" height="80" as="geometry" />
        </mxCell>
        <mxCell id="ZHCTBQIuarvFd4h09J1_-3" value="" style="endArrow=classic;html=1;rounded=0;exitX=0.443;exitY=1.053;exitDx=0;exitDy=0;exitPerimeter=0;" edge="1" parent="1" source="ZHCTBQIuarvFd4h09J1_-1" target="ZHCTBQIuarvFd4h09J1_-4">
          <mxGeometry width="50" height="50" relative="1" as="geometry">
            <mxPoint x="440" y="220" as="sourcePoint" />
            <mxPoint x="400" y="160" as="targetPoint" />
          </mxGeometry>
        </mxCell>
        <mxCell id="ZHCTBQIuarvFd4h09J1_-7" value="" style="edgeStyle=orthogonalEdgeStyle;rounded=0;orthogonalLoop=1;jettySize=auto;html=1;" edge="1" parent="1" source="ZHCTBQIuarvFd4h09J1_-4" target="ZHCTBQIuarvFd4h09J1_-6">
          <mxGeometry relative="1" as="geometry" />
        </mxCell>
        <mxCell id="ZHCTBQIuarvFd4h09J1_-4" value="input number" style="shape=parallelogram;perimeter=parallelogramPerimeter;whiteSpace=wrap;html=1;fixedSize=1;" vertex="1" parent="1">
          <mxGeometry x="340" y="160" width="120" height="60" as="geometry" />
        </mxCell>
        <mxCell id="ZHCTBQIuarvFd4h09J1_-9" value="" style="edgeStyle=orthogonalEdgeStyle;rounded=0;orthogonalLoop=1;jettySize=auto;html=1;" edge="1" parent="1" source="ZHCTBQIuarvFd4h09J1_-6" target="ZHCTBQIuarvFd4h09J1_-8">
          <mxGeometry relative="1" as="geometry" />
        </mxCell>
        <mxCell id="ZHCTBQIuarvFd4h09J1_-11" value="" style="edgeStyle=orthogonalEdgeStyle;rounded=0;orthogonalLoop=1;jettySize=auto;html=1;" edge="1" parent="1" source="ZHCTBQIuarvFd4h09J1_-6" target="ZHCTBQIuarvFd4h09J1_-10">
          <mxGeometry relative="1" as="geometry" />
        </mxCell>
        <mxCell id="ZHCTBQIuarvFd4h09J1_-6" value="number%2=0" style="rhombus;whiteSpace=wrap;html=1;" vertex="1" parent="1">
          <mxGeometry x="330" y="290" width="140" height="80" as="geometry" />
        </mxCell>
        <mxCell id="ZHCTBQIuarvFd4h09J1_-8" value="odd number" style="shape=parallelogram;perimeter=parallelogramPerimeter;whiteSpace=wrap;html=1;fixedSize=1;" vertex="1" parent="1">
          <mxGeometry x="560" y="300" width="120" height="60" as="geometry" />
        </mxCell>
        <mxCell id="ZHCTBQIuarvFd4h09J1_-13" value="" style="edgeStyle=orthogonalEdgeStyle;rounded=0;orthogonalLoop=1;jettySize=auto;html=1;" edge="1" parent="1" source="ZHCTBQIuarvFd4h09J1_-10" target="ZHCTBQIuarvFd4h09J1_-12">
          <mxGeometry relative="1" as="geometry" />
        </mxCell>
        <mxCell id="ZHCTBQIuarvFd4h09J1_-10" value="even number" style="shape=parallelogram;perimeter=parallelogramPerimeter;whiteSpace=wrap;html=1;fixedSize=1;" vertex="1" parent="1">
          <mxGeometry x="340" y="460" width="120" height="60" as="geometry" />
        </mxCell>
        <mxCell id="ZHCTBQIuarvFd4h09J1_-14" value="" style="edgeStyle=orthogonalEdgeStyle;rounded=0;orthogonalLoop=1;jettySize=auto;html=1;" edge="1" parent="1" source="ZHCTBQIuarvFd4h09J1_-12" target="ZHCTBQIuarvFd4h09J1_-8">
          <mxGeometry relative="1" as="geometry" />
        </mxCell>
        <mxCell id="ZHCTBQIuarvFd4h09J1_-12" value="end" style="ellipse;whiteSpace=wrap;html=1;" vertex="1" parent="1">
          <mxGeometry x="560" y="450" width="120" height="80" as="geometry" />
        </mxCell>
      </root>
    </mxGraphModel>
  </diagram>
</mxfile>
